<svg width="695" height="695" viewBox="0 0 695 695" fill="none" xmlns="http://www.w3.org/2000/svg">
<path d="M296 355C329.5 341.5 349.538 341 349.538 341V125C349.538 125 327.538 130 297.538 150.5C269.43 169.708 247 183.5 247 183.5C245.964 250.791 244 374 244 374C244 374 262.5 368.5 296 355Z" fill="url(#paint0_linear)" stroke="black" stroke-width="0.1"/>
<path d="M295 354C328.5 340.5 348.538 340 348.538 340V124C348.538 124 326.538 129 296.538 149.5C268.43 168.708 246 182.5 246 182.5C244.964 249.791 244 374 244 374C244 374 261.5 367.5 295 354Z" fill="url(#paint1_linear)" stroke="black" stroke-width="0.1"/>
<path d="M294 353C327.5 339.5 347.538 339 347.538 339V123C347.538 123 325.538 128 295.538 148.5C267.43 167.708 245 181.5 245 181.5C243.964 248.791 244 374 244 374C244 374 260.5 366.5 294 353Z" fill="url(#paint2_linear)" stroke="black" stroke-width="0.1"/>
<path d="M294 353C327.5 339.5 347.538 339 347.538 339V123C347.538 123 325.538 128 295.538 148.5C267.43 167.708 245 181.5 245 181.5C243.964 248.791 244 374 244 374C244 374 260.5 366.5 294 353Z" fill="url(#paint3_linear)" stroke="black" stroke-width="0.1"/>
<path d="M294 353C327.5 339.5 347.538 339 347.538 339V123C347.538 123 325.538 128 295.538 148.5C267.43 167.708 245 181.5 245 181.5C243.964 248.791 244 374 244 374C244 374 260.5 366.5 294 353Z" fill="url(#paint4_linear)" stroke="black" stroke-width="0.1"/>
<path d="M293 352.5C326.5 339 346.538 338 346.538 338V122C346.538 122 324.538 127 294.538 147.5C266.43 166.708 245 181.5 245 181.5C243.964 248.791 244 374 244 374C244 374 259.5 366 293 352.5Z" fill="url(#paint5_linear)" stroke="black" stroke-width="0.1"/>
<path d="M292.5 352C326 338.5 345.538 337 345.538 337V121C345.538 121 323.538 126 293.538 146.5C265.43 165.708 245 181.5 245 181.5C243.964 248.791 244 374 244 374C244 374 259 365.5 292.5 352Z" fill="url(#paint6_linear)" stroke="black" stroke-width="0.1"/>
<path d="M291.5 351.5C325 338 344.538 336 344.538 336V120C344.538 120 322.538 125 292.538 145.5C264.43 164.708 245 181.5 245 181.5C243.964 248.791 244 374 244 374C244 374 258 365 291.5 351.5Z" fill="url(#paint7_linear)" stroke="black" stroke-width="0.1"/>
<path d="M291.5 350.5C325 337 343.538 335 343.538 335V119C343.538 119 321.538 124 291.538 144.5C263.43 163.708 245 181.5 245 181.5C243.964 248.791 244 374 244 374C244 374 258 364 291.5 350.5Z" fill="url(#paint8_linear)" stroke="black" stroke-width="0.1"/>
<path d="M290.5 350C324 336.5 342.5 334 342.5 334V118C342.5 118 320.5 123 290.5 143.5C262.391 162.708 244.742 181.3 244.742 181.3C243.706 248.591 244 374 244 374C244 374 257 363.5 290.5 350Z" fill="#AE0945" stroke="black" stroke-width="0.1"/>
<rect x="192" y="179" width="37.5527" height="195.274" fill="#023051"/>
<path d="M376.215 403L478.359 374.46V179.186L376.215 138.629V403Z" fill="#005695"/>
<ellipse cx="397.245" cy="270.063" rx="10.5148" ry="12.7679" fill="white"/>
<rect x="478.359" y="179.186" width="37.5527" height="195.274" fill="#023051"/>
<path d="M108.198 528.414C109.107 530.319 109.562 532.332 109.562 534.453C109.562 536.531 109.172 538.458 108.393 540.233C107.657 541.965 106.64 543.48 105.341 544.779C102.483 547.593 99.0415 549 95.0151 549C90.9888 549 87.5685 547.593 84.7544 544.779C81.9403 541.965 80.5332 538.891 80.5332 535.557C80.5332 532.223 81.1393 529.561 82.3516 527.569C83.5638 525.578 85.1657 523.889 87.1572 522.504C91.1836 519.733 95.4697 518.348 100.016 518.348C104.562 518.304 108.22 518.759 110.991 519.711C113.805 520.664 116.359 521.854 118.654 523.283C120.992 524.712 123.135 526.271 125.083 527.959C127.075 529.647 129.023 531.206 130.928 532.635C135.387 535.968 139.478 537.635 143.202 537.635C146.968 537.635 150.41 536.704 153.527 534.843C156.558 533.024 159.199 530.578 161.45 527.504C166.126 521.01 168.486 513.282 168.529 504.32C168.486 495.099 164.697 486.115 157.164 477.37C152.488 471.871 146.817 467.39 140.149 463.927C136.859 462.195 133.439 460.875 129.889 459.965L111.186 477.889C112.658 480.054 114.779 482.024 117.55 483.799L123.979 487.825C129.347 491.289 132.032 495.791 132.032 501.333C131.988 505.446 130.538 508.91 127.681 511.724C124.91 514.451 121.511 515.815 117.485 515.815C113.458 515.815 110.038 514.408 107.224 511.594C104.41 508.78 103.003 505.208 103.003 500.878C103.003 496.549 104.778 492.934 108.328 490.033C104.951 487.868 102.657 486.028 101.444 484.513C99.1497 481.612 98.0024 478.409 98.0024 474.902L114.887 458.667C107.311 459.273 101.25 461.372 96.7036 464.966C92.3309 468.429 90.1445 472.607 90.1445 477.5C90.1445 479.578 90.7507 481.526 91.9629 483.344C93.2184 485.163 95.145 486.548 97.7427 487.5V499.515C91.5516 498.259 86.7026 495.229 83.1958 490.423C80.2518 486.396 78.7798 482.197 78.7798 477.824C78.7798 473.408 79.689 469.339 81.5073 465.615C83.369 461.892 86.0316 458.667 89.4951 455.939C96.8551 450.094 106.553 447.172 118.589 447.172C129.283 447.172 139.543 450.116 149.371 456.004C158.42 461.416 165.758 468.581 171.386 477.5C177.014 486.375 179.829 495.315 179.829 504.32C179.872 516.529 176.473 526.92 169.633 535.492C162.489 544.454 153.441 548.935 142.487 548.935C135.43 548.892 128.85 546.099 122.745 540.558L117.81 536.012C113.74 532.159 110.536 529.626 108.198 528.414ZM117.42 497.826C116.467 497.826 115.645 498.173 114.952 498.865C114.303 499.558 113.978 500.402 113.978 501.398C113.978 502.35 114.303 503.173 114.952 503.866C115.645 504.515 116.467 504.84 117.42 504.84C118.416 504.84 119.26 504.515 119.953 503.866C120.645 503.173 120.992 502.35 120.992 501.398C120.992 500.402 120.645 499.558 119.953 498.865C119.26 498.173 118.416 497.826 117.42 497.826ZM94.9502 530.816C93.9977 530.816 93.1751 531.163 92.4824 531.855C91.833 532.548 91.5083 533.392 91.5083 534.388C91.5083 535.341 91.833 536.163 92.4824 536.856C93.1751 537.505 93.9977 537.83 94.9502 537.83C95.946 537.83 96.7902 537.505 97.4829 536.856C98.1756 536.163 98.522 535.341 98.522 534.388C98.522 533.392 98.1756 532.548 97.4829 531.855C96.7902 531.163 95.946 530.816 94.9502 530.816ZM199.984 547.182V497.307C199.984 489.817 202.646 484.08 207.972 480.097L222.518 469.057C226.588 471.828 229.511 474.274 231.286 476.396C234.879 480.725 236.676 485.119 236.676 489.579V519.646C236.676 526.011 234.013 531.206 228.688 535.232L207.582 551.013L199.984 547.182ZM214.531 488.994C212.193 490.856 211.024 493.627 211.024 497.307V534.778L222.194 526.66C224.488 525.015 225.636 522.677 225.636 519.646V489.579C225.636 487.068 224.618 484.795 222.583 482.76L214.531 488.994ZM258 547.182V497.307C258 489.817 260.662 484.08 265.988 480.097L280.535 469.057C284.604 471.828 287.527 474.274 289.302 476.396C292.895 480.725 294.692 485.119 294.692 489.579V519.646C294.692 526.011 292.029 531.206 286.704 535.232L265.598 551.013L258 547.182ZM272.547 488.994C270.209 490.856 269.04 493.627 269.04 497.307V534.778L280.21 526.66C282.504 525.015 283.652 522.677 283.652 519.646V489.579C283.652 487.068 282.634 484.795 280.599 482.76L272.547 488.994ZM317.769 469.122C322.359 471.936 325.497 474.837 327.186 477.824L338.226 469.122C343.941 474.534 348.443 481.699 351.734 490.618L341.928 496.268C340.499 492.414 338.745 489.146 336.667 486.461L329.848 491.852V549H318.808V488.28C318.808 484.86 316.449 481.569 311.73 478.409L317.769 469.122ZM380.331 533.414L390.073 525.556C393.103 523.132 394.705 519.278 394.878 513.997V486.526C394.835 484.881 394.467 483.582 393.774 482.63C392.778 481.288 391.025 479.534 388.514 477.37L395.982 469.122C399.835 472.542 402.303 475.032 403.385 476.59C405.074 479.145 405.918 481.807 405.918 484.578V533.414L415.659 525.556C418.863 523.002 420.465 518.867 420.465 513.152V497.177C420.508 493.15 419.058 489.276 416.114 485.552C415.248 484.427 414.274 483.279 413.192 482.11L408.581 476.98L416.504 469.122L421.05 474.123C424.427 477.803 426.721 480.79 427.933 483.084C430.315 487.5 431.505 492.133 431.505 496.982V513.152C431.505 522.244 428.583 529.215 422.738 534.063L402.346 550.948L394.878 546.078V535.947L376.76 550.948L369.291 546.078V486.526C369.248 484.881 368.88 483.582 368.187 482.63C367.191 481.288 365.438 479.534 362.927 477.37L370.395 469.122C374.248 472.542 376.716 475.032 377.799 476.59C379.487 479.145 380.331 481.807 380.331 484.578V533.414ZM462.181 535.103C462.181 536.791 462.874 538.025 464.259 538.804L476.858 529.388V486.007L467.766 493.085C464.043 495.986 462.181 499.926 462.181 504.905V535.103ZM490.041 550.948C485.408 548.091 482.031 544.822 479.91 541.142L466.792 550.948C459.821 549.693 455.059 546.532 452.505 541.467C451.595 539.648 451.141 537.527 451.141 535.103V504.905C451.141 496.159 454.323 489.405 460.687 484.643L481.209 469.122L487.898 472.564V526.855C487.898 530.189 488.547 533.003 489.846 535.297C491.145 537.592 493.309 539.8 496.34 541.921L490.041 550.948ZM514.807 469.122C519.396 471.936 522.535 474.837 524.223 477.824L535.263 469.122C540.978 474.534 545.481 481.699 548.771 490.618L538.965 496.268C537.536 492.414 535.783 489.146 533.705 486.461L526.886 491.852V549H515.846V488.28C515.846 484.86 513.486 481.569 508.767 478.409L514.807 469.122ZM579.317 447.951C575.204 450.852 573.148 454.424 573.148 458.667C573.148 463.948 577.369 470.139 585.811 477.24C591.05 481.656 594.686 485.444 596.721 488.604C600.661 494.796 602.631 501.052 602.631 507.373C602.631 519.235 597.479 529.604 587.175 538.479L572.758 550.948L564.965 546.597V495.229C564.965 491.678 566.004 488.778 568.082 486.526L573.212 480.812C565.852 474.231 562.172 466.892 562.172 458.796C562.172 452.605 564.489 447.085 569.121 442.236C570.42 440.851 571.719 439.704 573.018 438.794L579.317 447.951ZM588.214 521.27C589.513 518.932 590.4 516.811 590.877 514.906C591.353 513.001 591.591 511.009 591.591 508.931C591.591 506.853 591.309 504.861 590.747 502.957C590.184 501.052 589.426 499.19 588.474 497.372C586.655 493.865 584.361 490.748 581.59 488.02L576.005 494.449V533.804L580.031 530.232C584.188 526.552 586.915 523.565 588.214 521.27Z" fill="black"/>
<defs>
<linearGradient id="paint0_linear" x1="350.594" y1="12.8535" x2="274.66" y2="351.746" gradientUnits="userSpaceOnUse">
<stop stop-color="white"/>
<stop offset="1" stop-color="#DBDBDB"/>
</linearGradient>
<linearGradient id="paint1_linear" x1="349.594" y1="11.8535" x2="273.66" y2="350.746" gradientUnits="userSpaceOnUse">
<stop stop-color="white"/>
<stop offset="1" stop-color="#DBDBDB"/>
</linearGradient>
<linearGradient id="paint2_linear" x1="348.594" y1="10.8535" x2="272.66" y2="349.746" gradientUnits="userSpaceOnUse">
<stop stop-color="white"/>
<stop offset="1" stop-color="#DBDBDB"/>
</linearGradient>
<linearGradient id="paint3_linear" x1="348.594" y1="10.8535" x2="272.66" y2="349.746" gradientUnits="userSpaceOnUse">
<stop stop-color="white"/>
<stop offset="1" stop-color="#DBDBDB"/>
</linearGradient>
<linearGradient id="paint4_linear" x1="348.594" y1="10.8535" x2="272.66" y2="349.746" gradientUnits="userSpaceOnUse">
<stop stop-color="white"/>
<stop offset="1" stop-color="#DBDBDB"/>
</linearGradient>
<linearGradient id="paint5_linear" x1="347.594" y1="9.85347" x2="271.66" y2="348.746" gradientUnits="userSpaceOnUse">
<stop stop-color="white"/>
<stop offset="1" stop-color="#DBDBDB"/>
</linearGradient>
<linearGradient id="paint6_linear" x1="346.594" y1="8.85348" x2="270.66" y2="347.746" gradientUnits="userSpaceOnUse">
<stop stop-color="white"/>
<stop offset="1" stop-color="#DBDBDB"/>
</linearGradient>
<linearGradient id="paint7_linear" x1="345.594" y1="7.85349" x2="269.66" y2="346.746" gradientUnits="userSpaceOnUse">
<stop stop-color="white"/>
<stop offset="1" stop-color="#DBDBDB"/>
</linearGradient>
<linearGradient id="paint8_linear" x1="344.594" y1="6.85349" x2="268.66" y2="345.746" gradientUnits="userSpaceOnUse">
<stop stop-color="white"/>
<stop offset="1" stop-color="#DBDBDB"/>
</linearGradient>
</defs>
</svg>
