<svg width="1812" height="695" viewBox="0 0 1812 695" fill="none" xmlns="http://www.w3.org/2000/svg">
<path d="M363.912 490.579C414.456 470.211 444.69 469.456 444.69 469.456V143.561C444.69 143.561 411.497 151.105 366.233 182.035C323.824 211.015 289.982 231.825 289.982 231.825C288.42 333.351 285.456 519.246 285.456 519.246C285.456 519.246 313.368 510.947 363.912 490.579Z" fill="url(#paint0_linear)" stroke="black" stroke-width="0.1"/>
<path d="M362.403 489.07C412.947 468.702 443.181 467.947 443.181 467.947V142.053C443.181 142.053 409.988 149.596 364.725 180.526C322.315 209.506 288.474 230.316 288.474 230.316C286.911 331.843 285.456 519.246 285.456 519.246C285.456 519.246 311.86 509.439 362.403 489.07Z" fill="url(#paint1_linear)" stroke="black" stroke-width="0.1"/>
<path d="M360.895 487.561C411.439 467.193 441.672 466.439 441.672 466.439V140.544C441.672 140.544 408.479 148.088 363.216 179.018C320.806 207.997 286.965 228.807 286.965 228.807C285.402 330.334 285.456 519.246 285.456 519.246C285.456 519.246 310.351 507.93 360.895 487.561Z" fill="url(#paint2_linear)" stroke="black" stroke-width="0.1"/>
<path d="M360.895 487.561C411.439 467.193 441.672 466.439 441.672 466.439V140.544C441.672 140.544 408.479 148.088 363.216 179.018C320.806 207.997 286.965 228.807 286.965 228.807C285.402 330.334 285.456 519.246 285.456 519.246C285.456 519.246 310.351 507.93 360.895 487.561Z" fill="url(#paint3_linear)" stroke="black" stroke-width="0.1"/>
<path d="M360.895 487.561C411.439 467.193 441.672 466.439 441.672 466.439V140.544C441.672 140.544 408.479 148.088 363.216 179.018C320.806 207.997 286.965 228.807 286.965 228.807C285.402 330.334 285.456 519.246 285.456 519.246C285.456 519.246 310.351 507.93 360.895 487.561Z" fill="url(#paint4_linear)" stroke="black" stroke-width="0.1"/>
<path d="M359.386 486.807C409.93 466.439 440.163 464.93 440.163 464.93V139.035C440.163 139.035 406.97 146.579 361.707 177.509C319.298 206.489 286.965 228.807 286.965 228.807C285.402 330.334 285.456 519.246 285.456 519.246C285.456 519.246 308.842 507.175 359.386 486.807Z" fill="url(#paint5_linear)" stroke="black" stroke-width="0.1"/>
<path d="M358.632 486.053C409.175 465.684 438.655 463.421 438.655 463.421V137.526C438.655 137.526 405.462 145.07 360.198 176C317.789 204.98 286.965 228.807 286.965 228.807C285.402 330.334 285.456 519.246 285.456 519.246C285.456 519.246 308.088 506.421 358.632 486.053Z" fill="url(#paint6_linear)" stroke="black" stroke-width="0.1"/>
<path d="M357.123 485.298C407.667 464.93 437.146 461.912 437.146 461.912V136.018C437.146 136.018 403.953 143.561 358.69 174.491C316.28 203.471 286.965 228.807 286.965 228.807C285.402 330.334 285.456 519.246 285.456 519.246C285.456 519.246 306.579 505.667 357.123 485.298Z" fill="url(#paint7_linear)" stroke="black" stroke-width="0.1"/>
<path d="M357.123 483.789C407.667 463.421 435.637 460.403 435.637 460.403V134.509C435.637 134.509 402.444 142.053 357.181 172.982C314.771 201.962 286.965 228.807 286.965 228.807C285.402 330.334 285.456 519.246 285.456 519.246C285.456 519.246 306.579 504.158 357.123 483.789Z" fill="url(#paint8_linear)" stroke="black" stroke-width="0.1"/>
<path d="M355.614 483.035C406.158 462.667 434.07 458.895 434.07 458.895V133C434.07 133 400.877 140.544 355.614 171.474C313.205 200.453 286.576 228.505 286.576 228.505C285.013 330.032 285.456 519.246 285.456 519.246C285.456 519.246 305.07 503.404 355.614 483.035Z" fill="#AE0945" stroke="black" stroke-width="0.1"/>
<rect x="207" y="225.035" width="56.6585" height="294.624" fill="white"/>
<path d="M484.939 563L639.05 519.94V225.315L484.939 164.124V563Z" fill="#005695"/>
<ellipse cx="516.667" cy="362.429" rx="15.8644" ry="19.2639" fill="white"/>
<rect x="639.05" y="225.315" width="56.6585" height="294.624" fill="white"/>
<path d="M899.136 409.507C900.482 412.329 901.156 415.311 901.156 418.453C901.156 421.531 900.579 424.385 899.424 427.014C898.334 429.579 896.827 431.824 894.903 433.748C890.671 437.916 885.573 440 879.609 440C873.645 440 868.579 437.916 864.411 433.748C860.242 429.579 858.158 425.026 858.158 420.088C858.158 415.151 859.056 411.207 860.852 408.257C862.647 405.307 865.02 402.806 867.97 400.754C873.934 396.65 880.282 394.598 887.016 394.598C893.749 394.534 899.168 395.207 903.272 396.618C907.44 398.028 911.224 399.792 914.623 401.908C918.085 404.024 921.26 406.333 924.146 408.834C927.095 411.335 929.981 413.644 932.803 415.76C939.408 420.698 945.468 423.167 950.983 423.167C956.562 423.167 961.66 421.788 966.277 419.03C970.766 416.337 974.678 412.714 978.013 408.161C984.938 398.542 988.433 387.095 988.498 373.82C988.433 360.161 982.822 346.855 971.664 333.901C964.738 325.757 956.338 319.119 946.462 313.989C941.588 311.424 936.522 309.468 931.264 308.122L903.561 334.67C905.741 337.877 908.883 340.795 912.987 343.424L922.51 349.388C930.462 354.518 934.438 361.187 934.438 369.396C934.374 375.488 932.226 380.618 927.993 384.786C923.889 388.826 918.855 390.846 912.891 390.846C906.927 390.846 901.861 388.762 897.693 384.594C893.525 380.425 891.44 375.135 891.44 368.722C891.44 362.309 894.07 356.955 899.328 352.658C894.326 349.452 890.927 346.726 889.132 344.482C885.733 340.185 884.034 335.44 884.034 330.246L909.043 306.198C897.821 307.096 888.843 310.206 882.11 315.528C875.633 320.659 872.395 326.847 872.395 334.093C872.395 337.171 873.292 340.057 875.088 342.75C876.948 345.444 879.801 347.496 883.649 348.907V366.702C874.479 364.842 867.296 360.354 862.102 353.235C857.741 347.271 855.561 341.051 855.561 334.574C855.561 328.033 856.908 322.005 859.601 316.49C862.359 310.975 866.302 306.198 871.433 302.158C882.334 293.5 896.699 289.172 914.526 289.172C930.366 289.172 945.564 293.533 960.121 302.254C973.524 310.27 984.393 320.883 992.73 334.093C1001.07 347.239 1005.23 360.482 1005.23 373.82C1005.3 391.904 1000.26 407.295 990.133 419.992C979.552 433.267 966.149 439.904 949.925 439.904C939.472 439.84 929.725 435.703 920.683 427.495L913.372 420.762C907.344 415.054 902.599 411.303 899.136 409.507ZM912.795 364.201C911.384 364.201 910.166 364.714 909.14 365.74C908.178 366.766 907.697 368.017 907.697 369.492C907.697 370.903 908.178 372.121 909.14 373.147C910.166 374.109 911.384 374.59 912.795 374.59C914.27 374.59 915.52 374.109 916.546 373.147C917.572 372.121 918.085 370.903 918.085 369.492C918.085 368.017 917.572 366.766 916.546 365.74C915.52 364.714 914.27 364.201 912.795 364.201ZM879.513 413.066C878.102 413.066 876.883 413.579 875.857 414.605C874.896 415.632 874.415 416.882 874.415 418.357C874.415 419.768 874.896 420.986 875.857 422.012C876.883 422.974 878.102 423.455 879.513 423.455C880.988 423.455 882.238 422.974 883.264 422.012C884.29 420.986 884.803 419.768 884.803 418.357C884.803 416.882 884.29 415.632 883.264 414.605C882.238 413.579 880.988 413.066 879.513 413.066ZM1035.09 437.307V363.432C1035.09 352.338 1039.03 343.841 1046.92 337.941L1068.47 321.588C1074.5 325.693 1078.82 329.316 1081.45 332.458C1086.78 338.871 1089.44 345.38 1089.44 351.985V396.521C1089.44 405.948 1085.49 413.644 1077.61 419.607L1046.34 442.982L1035.09 437.307ZM1056.64 351.119C1053.17 353.877 1051.44 357.981 1051.44 363.432V418.934L1067.99 406.91C1071.39 404.473 1073.08 401.01 1073.08 396.521V351.985C1073.08 348.265 1071.58 344.899 1068.56 341.885L1056.64 351.119ZM1121.02 437.307V363.432C1121.02 352.338 1124.97 343.841 1132.85 337.941L1154.4 321.588C1160.43 325.693 1164.76 329.316 1167.39 332.458C1172.71 338.871 1175.37 345.38 1175.37 351.985V396.521C1175.37 405.948 1171.43 413.644 1163.54 419.607L1132.28 442.982L1121.02 437.307ZM1142.57 351.119C1139.11 353.877 1137.37 357.981 1137.37 363.432V418.934L1153.92 406.91C1157.32 404.473 1159.02 401.01 1159.02 396.521V351.985C1159.02 348.265 1157.51 344.899 1154.5 341.885L1142.57 351.119ZM1209.55 321.685C1216.35 325.853 1221 330.149 1223.5 334.574L1239.85 321.685C1248.32 329.701 1254.99 340.314 1259.86 353.524L1245.34 361.893C1243.22 356.185 1240.62 351.344 1237.54 347.368L1227.44 355.352V440H1211.09V350.061C1211.09 344.995 1207.6 340.121 1200.61 335.44L1209.55 321.685ZM1302.22 416.914L1316.65 405.275C1321.14 401.684 1323.51 395.976 1323.77 388.153V347.464C1323.7 345.027 1323.16 343.103 1322.13 341.692C1320.66 339.704 1318.06 337.107 1314.34 333.901L1325.4 321.685C1331.11 326.751 1334.76 330.438 1336.37 332.747C1338.87 336.53 1340.12 340.474 1340.12 344.578V416.914L1354.55 405.275C1359.29 401.491 1361.67 395.367 1361.67 386.902V363.239C1361.73 357.275 1359.58 351.536 1355.22 346.021C1353.94 344.354 1352.5 342.654 1350.89 340.923L1344.06 333.324L1355.8 321.685L1362.53 329.091C1367.53 334.542 1370.93 338.967 1372.73 342.366C1376.26 348.907 1378.02 355.768 1378.02 362.951V386.902C1378.02 400.369 1373.69 410.694 1365.03 417.876L1334.83 442.886L1323.77 435.671V420.666L1296.93 442.886L1285.87 435.671V347.464C1285.8 345.027 1285.26 343.103 1284.23 341.692C1282.76 339.704 1280.16 337.107 1276.44 333.901L1287.5 321.685C1293.21 326.751 1296.87 330.438 1298.47 332.747C1300.97 336.53 1302.22 340.474 1302.22 344.578V416.914ZM1423.46 419.415C1423.46 421.916 1424.48 423.744 1426.53 424.898L1445.2 410.95V346.694L1431.73 357.179C1426.21 361.476 1423.46 367.311 1423.46 374.686V419.415ZM1464.72 442.886C1457.86 438.653 1452.86 433.812 1449.72 428.361L1430.29 442.886C1419.96 441.026 1412.91 436.345 1409.12 428.842C1407.78 426.148 1407.1 423.006 1407.1 419.415V374.686C1407.1 361.732 1411.82 351.728 1421.24 344.674L1451.64 321.685L1461.55 326.783V407.199C1461.55 412.137 1462.51 416.305 1464.43 419.704C1466.36 423.102 1469.56 426.373 1474.05 429.515L1464.72 442.886ZM1501.41 321.685C1508.2 325.853 1512.85 330.149 1515.35 334.574L1531.71 321.685C1540.17 329.701 1546.84 340.314 1551.71 353.524L1537.19 361.893C1535.07 356.185 1532.48 351.344 1529.4 347.368L1519.3 355.352V440H1502.94V350.061C1502.94 344.995 1499.45 340.121 1492.46 335.44L1501.41 321.685ZM1596.96 290.326C1590.87 294.623 1587.82 299.913 1587.82 306.198C1587.82 314.021 1594.07 323.192 1606.58 333.708C1614.34 340.25 1619.72 345.861 1622.74 350.542C1628.57 359.712 1631.49 368.979 1631.49 378.341C1631.49 395.912 1623.86 411.271 1608.6 424.417L1587.24 442.886L1575.7 436.441V360.354C1575.7 355.095 1577.24 350.799 1580.32 347.464L1587.92 338.999C1577.01 329.252 1571.56 318.382 1571.56 306.39C1571.56 297.22 1574.99 289.044 1581.86 281.861C1583.78 279.809 1585.7 278.11 1587.63 276.763L1596.96 290.326ZM1610.14 398.926C1612.06 395.463 1613.37 392.321 1614.08 389.5C1614.79 386.678 1615.14 383.728 1615.14 380.65C1615.14 377.572 1614.72 374.622 1613.89 371.8C1613.05 368.979 1611.93 366.221 1610.52 363.528C1607.83 358.333 1604.43 353.716 1600.32 349.676L1592.05 359.199V417.491L1598.02 412.201C1604.17 406.75 1608.21 402.325 1610.14 398.926Z" fill="white"/>
<defs>
<linearGradient id="paint0_linear" x1="446.282" y1="-25.6422" x2="331.714" y2="485.67" gradientUnits="userSpaceOnUse">
<stop stop-color="white"/>
<stop offset="1" stop-color="#DBDBDB"/>
</linearGradient>
<linearGradient id="paint1_linear" x1="444.774" y1="-27.1509" x2="330.206" y2="484.161" gradientUnits="userSpaceOnUse">
<stop stop-color="white"/>
<stop offset="1" stop-color="#DBDBDB"/>
</linearGradient>
<linearGradient id="paint2_linear" x1="443.265" y1="-28.6597" x2="328.697" y2="482.653" gradientUnits="userSpaceOnUse">
<stop stop-color="white"/>
<stop offset="1" stop-color="#DBDBDB"/>
</linearGradient>
<linearGradient id="paint3_linear" x1="443.265" y1="-28.6597" x2="328.697" y2="482.653" gradientUnits="userSpaceOnUse">
<stop stop-color="white"/>
<stop offset="1" stop-color="#DBDBDB"/>
</linearGradient>
<linearGradient id="paint4_linear" x1="443.265" y1="-28.6597" x2="328.697" y2="482.653" gradientUnits="userSpaceOnUse">
<stop stop-color="white"/>
<stop offset="1" stop-color="#DBDBDB"/>
</linearGradient>
<linearGradient id="paint5_linear" x1="441.756" y1="-30.1684" x2="327.188" y2="481.144" gradientUnits="userSpaceOnUse">
<stop stop-color="white"/>
<stop offset="1" stop-color="#DBDBDB"/>
</linearGradient>
<linearGradient id="paint6_linear" x1="440.247" y1="-31.6772" x2="325.679" y2="479.635" gradientUnits="userSpaceOnUse">
<stop stop-color="white"/>
<stop offset="1" stop-color="#DBDBDB"/>
</linearGradient>
<linearGradient id="paint7_linear" x1="438.739" y1="-33.186" x2="324.171" y2="478.126" gradientUnits="userSpaceOnUse">
<stop stop-color="white"/>
<stop offset="1" stop-color="#DBDBDB"/>
</linearGradient>
<linearGradient id="paint8_linear" x1="437.23" y1="-34.6947" x2="322.662" y2="476.617" gradientUnits="userSpaceOnUse">
<stop stop-color="white"/>
<stop offset="1" stop-color="#DBDBDB"/>
</linearGradient>
</defs>
</svg>
